<svg preserveAspectRatio="none" width="100%" height="100%" overflow="visible" style="display: block;" viewBox="0 0 11.7895 16" fill="none" xmlns="http://www.w3.org/2000/svg">
<path id="Vector" d="M5.89474 10.1053C7.29263 10.1053 8.41263 8.97684 8.41263 7.57895L8.42105 2.52632C8.42105 1.12842 7.29263 0 5.89474 0C4.49684 0 3.36842 1.12842 3.36842 2.52632V7.57895C3.36842 8.97684 4.49684 10.1053 5.89474 10.1053ZM10.3579 7.57895C10.3579 10.1053 8.21895 11.8737 5.89474 11.8737C3.57053 11.8737 1.43158 10.1053 1.43158 7.57895H0C0 10.4505 2.29053 12.8253 5.05263 13.2379V16H6.73684V13.2379C9.49895 12.8337 11.7895 10.4589 11.7895 7.57895H10.3579Z" fill="var(--fill-0, white)"/>
</svg>
