<svg width="30" height="30" viewBox="0 0 30 30" fill="none" xmlns="http://www.w3.org/2000/svg">
<path d="M26.5486 17.152C26.5486 23.562 21.3523 27.7583 14.9423 27.7583C8.53227 27.7583 3.33594 23.562 3.33594 17.152C3.33594 10.742 8.53227 5.54565 14.9423 5.54565C21.3523 5.54565 26.5486 10.742 26.5486 17.152Z" fill="#006EB9"/>
<path d="M12.5 23.8792C15.5 21.8792 19 21.8792 19 21.8792" stroke="white" stroke-width="2" stroke-linecap="round"/>
<path d="M7.96496 4.14713C9.9883 3.97588 11.7965 4.34093 13.121 5.24649C14.4123 6.12949 15.361 7.60483 15.5577 9.92876C15.9628 14.7157 13.0296 18.5673 9.38112 18.8761C5.73264 19.1848 2.19378 15.881 1.7886 11.0941C1.58922 8.73842 2.21488 7.13002 3.25623 6.06279C4.31982 4.9728 5.9431 4.31832 7.96496 4.14713Z" fill="white" stroke="#006EB9" stroke-width="2"/>
<path d="M22.045 4.44335C24.0358 4.8174 25.5265 5.62599 26.4229 6.80307C27.3047 7.96116 27.7257 9.62654 27.2855 11.9692C26.3983 16.6906 22.5438 19.6187 18.9452 18.9425C15.3467 18.2664 12.8178 14.1389 13.7048 9.4175C14.1321 7.14332 15.2628 5.76936 16.6919 5.01646C18.1582 4.24413 20.0513 4.06879 22.045 4.44335Z" fill="white" stroke="#006EB9" stroke-width="2"/>
<path d="M7.21875 11.4507C8.46968 11.4507 9.21875 12.1791 9.21875 13.1479C9.21863 14.2525 8.32328 15.1479 7.21875 15.1479C6.11425 15.1479 5.21887 14.2524 5.21875 13.1479C5.21875 12.1791 5.96787 11.4507 7.21875 11.4507Z" fill="#006EB9" stroke="#006EB9" stroke-width="2"/>
<path d="M19.6445 11.8145C20.8955 11.8145 21.6445 12.5429 21.6445 13.5117C21.6444 14.6162 20.7491 15.5117 19.6445 15.5117C18.54 15.5117 17.6447 14.6162 17.6445 13.5117C17.6445 12.5429 18.3936 11.8145 19.6445 11.8145Z" fill="#006EB9" stroke="#006EB9" stroke-width="2"/>
</svg>
