<svg width="30" height="28" viewBox="0 0 30 28" fill="none" xmlns="http://www.w3.org/2000/svg">
<path d="M26.5486 16.152C26.5486 22.562 21.3523 26.7583 14.9423 26.7583C8.53227 26.7583 3.33594 22.562 3.33594 16.152C3.33594 9.74199 8.53227 4.54565 14.9423 4.54565C21.3523 4.54565 26.5486 9.74199 26.5486 16.152Z" fill="#006EB9"/>
<path d="M10 21.3792C15 25.3792 20 21.3792 20 21.3792" stroke="white" stroke-width="2" stroke-linecap="round"/>
<path d="M7.96534 2.14704C11.6139 1.83824 15.1527 5.142 15.5579 9.92898C15.9628 14.7158 13.0296 18.5665 9.38116 18.8753C5.73276 19.184 2.19402 15.8811 1.78873 11.0944C1.38358 6.30742 4.31685 2.45591 7.96534 2.14704Z" fill="white" stroke="#006EB9" stroke-width="2"/>
<path d="M22.0455 2.4433C25.6441 3.11944 28.1729 7.24783 27.2858 11.9693C26.3985 16.6906 22.544 19.6188 18.9455 18.9427C15.347 18.2665 12.8181 14.1389 13.7051 9.41763C14.5922 4.6962 18.447 1.76723 22.0455 2.4433Z" fill="white" stroke="#006EB9" stroke-width="2"/>
<path d="M7.21875 11.4507C8.46968 11.4507 9.21875 12.1791 9.21875 13.1479C9.21863 14.2525 8.32328 15.1479 7.21875 15.1479C6.11425 15.1479 5.21887 14.2524 5.21875 13.1479C5.21875 12.1791 5.96787 11.4507 7.21875 11.4507Z" fill="#006EB9" stroke="#006EB9" stroke-width="2"/>
<path d="M19.6445 11.8145C20.8955 11.8145 21.6445 12.5429 21.6445 13.5117C21.6444 14.6162 20.7491 15.5117 19.6445 15.5117C18.54 15.5117 17.6447 14.6162 17.6445 13.5117C17.6445 12.5429 18.3936 11.8145 19.6445 11.8145Z" fill="#006EB9" stroke="#006EB9" stroke-width="2"/>
</svg>
