<svg width="30" height="30" viewBox="0 0 30 30" fill="none" xmlns="http://www.w3.org/2000/svg">
<path d="M26.5486 17.152C26.5486 23.562 21.3523 27.7583 14.9423 27.7583C8.53227 27.7583 3.33594 23.562 3.33594 17.152C3.33594 10.742 8.53227 5.54565 14.9423 5.54565C21.3523 5.54565 26.5486 10.742 26.5486 17.152Z" fill="#006EB9"/>
<path d="M7.96534 3.14704C11.6139 2.83824 15.1527 6.142 15.5579 10.929C15.9628 15.7158 13.0296 19.5665 9.38116 19.8753C5.73276 20.184 2.19402 16.8811 1.78873 12.0944C1.38358 7.30742 4.31685 3.45591 7.96534 3.14704Z" fill="white" stroke="#006EB9" stroke-width="2"/>
<path d="M22.0428 5.44325C24.1385 5.83701 25.6158 6.43673 26.4812 7.37515C27.2893 8.25152 27.7264 9.61104 27.2835 11.9685C26.3964 16.69 22.5416 19.619 18.943 18.9428C15.3445 18.2666 12.8157 14.1383 13.7028 9.41683C14.1234 7.17871 15.2123 6.08811 16.5795 5.56639C18.0403 5.00904 19.9565 5.05128 22.0428 5.44325Z" fill="white" stroke="#006EB9" stroke-width="2"/>
<path d="M7.21875 12.4507C8.46968 12.4507 9.21875 13.1791 9.21875 14.1479C9.21863 15.2525 8.32328 16.1479 7.21875 16.1479C6.11425 16.1479 5.21887 15.2524 5.21875 14.1479C5.21875 13.1791 5.96787 12.4507 7.21875 12.4507Z" fill="#006EB9" stroke="#006EB9" stroke-width="2"/>
<path d="M13.9998 11.379C21.5 15.3792 26.9988 12.8792 26.9988 12.8792" stroke="#006EB9" stroke-width="2" stroke-linecap="round"/>
<path d="M12.5 23.8792C15.5 24.3792 17 22.8792 17 22.8792" stroke="white" stroke-width="2" stroke-linecap="round"/>
</svg>
