<svg width="30" height="30" viewBox="0 0 30 30" fill="none" xmlns="http://www.w3.org/2000/svg">
<path d="M26.5486 17.152C26.5486 23.562 21.3523 27.7583 14.9423 27.7583C8.53227 27.7583 3.33594 23.562 3.33594 17.152C3.33594 10.742 8.53227 5.54565 14.9423 5.54565C21.3523 5.54565 26.5486 10.742 26.5486 17.152Z" fill="#006EB9"/>
<path d="M12.5 23.8792C15.5 24.3792 17 22.8792 17 22.8792" stroke="white" stroke-width="2" stroke-linecap="round"/>
<path d="M7.96534 3.14704C11.6139 2.83824 15.1527 6.142 15.5579 10.929C15.9628 15.7158 13.0296 19.5665 9.38116 19.8753C5.73276 20.184 2.19402 16.8811 1.78873 12.0944C1.38358 7.30742 4.31685 3.45591 7.96534 3.14704Z" fill="white" stroke="#006EB9" stroke-width="2"/>
<path d="M22.0455 3.4433C25.6441 4.11944 28.1729 8.24783 27.2858 12.9693C26.3985 17.6906 22.544 20.6188 18.9455 19.9427C15.347 19.2665 12.8181 15.1389 13.7051 10.4176C14.5922 5.6962 18.447 2.76723 22.0455 3.4433Z" fill="white" stroke="#006EB9" stroke-width="2"/>
<path d="M7.21875 12.4507C8.46968 12.4507 9.21875 13.1791 9.21875 14.1479C9.21863 15.2525 8.32328 16.1479 7.21875 16.1479C6.11425 16.1479 5.21887 15.2524 5.21875 14.1479C5.21875 13.1791 5.96787 12.4507 7.21875 12.4507Z" fill="#006EB9" stroke="#006EB9" stroke-width="2"/>
<path d="M19.6445 12.8145C20.8955 12.8145 21.6445 13.5429 21.6445 14.5117C21.6444 15.6162 20.7491 16.5117 19.6445 16.5117C18.54 16.5117 17.6447 15.6162 17.6445 14.5117C17.6445 13.5429 18.3936 12.8145 19.6445 12.8145Z" fill="#006EB9" stroke="#006EB9" stroke-width="2"/>
</svg>
